<svg width="2304" height="1425" viewBox="0 0 2304 1425" fill="none" xmlns="http://www.w3.org/2000/svg">
<line id="Line 1" x1="185.417" y1="23.2765" x2="35.4166" y2="249.277" stroke="black"/>
<line id="Line 2" x1="35.2593" y1="248.572" x2="284.259" y2="399.572" stroke="black"/>
<path id="Vector 1" d="M458 130.5L284 398L419 352.5L578.5 107M458 130.5L187.5 22.5L300.5 2.5L578.5 107M458 130.5L578.5 107M72.5 536.5L48 864.5L419 884.5M72.5 536.5L419 569.5M72.5 536.5L187.5 471L514 504M419 884.5V569.5M419 884.5L546 802L514 504M419 569.5L514 504M689 332.5L832.5 677.5M689 332.5L1116.5 175M689 332.5L578.5 287.5M832.5 677.5L1290.5 504L1116.5 175M832.5 677.5L689 595.5L578.5 287.5M1116.5 175L934.5 144.5L578.5 287.5M742 922L514 1141.5L822 1370.5M742 922L1035.5 1117M742 922L896 905.5L1169.5 1093.5M822 1370.5L1035.5 1117M822 1370.5L994.5 1330.5L1169.5 1093.5M1035.5 1117L1169.5 1093.5" stroke="black"/>
<path id="Vector 2" d="M17.5 1171L213.5 1046.5L366 1245M17.5 1171L189 1364.5M17.5 1171L1 1245L153.5 1423.5M189 1364.5L366 1245M189 1364.5L153.5 1423.5M366 1245L351 1292L153.5 1423.5M1184.5 708L1317.5 1074.5M1184.5 708L1553.5 572M1184.5 708L1074.5 666M1317.5 1074.5L1711 929L1553.5 572M1317.5 1074.5L1184.5 991L1074.5 666M1553.5 572L1425.5 531L1074.5 666M1442 231.5L1519.5 17.5L1763.5 46M1442 231.5L1699 295M1442 231.5L1497 314.5L1728.5 369M1699 295L1763.5 46M1699 295L1728.5 369M1763.5 46L1788.5 120L1728.5 369M2303 189L2101 1L1873 149M2303 189L2051.5 377M2303 189L2271 295L2023.5 482.5M2051.5 377L1873 149M2051.5 377L2023.5 482.5M1873 149L1859 252.5L2023.5 482.5M1788.5 802L1843.5 504L2170 548.5M1788.5 802L2135 891.5M1788.5 802L1834 901L2202 991M2135 891.5L2170 548.5M2135 891.5L2202 991M2170 548.5L2238 641L2202 991M1442 1140.5L1450 1364.5H1699M1442 1140.5H1664M1442 1140.5L1721.5 1009H1908M1699 1364.5L1664 1140.5M1699 1364.5L1921 1222.5L1908 1009M1664 1140.5L1908 1009M2170 1204L2035 1312M2170 1204L2271 1326M2170 1204L2176 1110M2035 1312L2164 1423.5L2271 1326M2035 1312L2051.5 1204L2176 1110M2271 1326V1213L2176 1110" stroke="black"/>
</svg>
